<?xml version="1.0" encoding="UTF-8" standalone="no"?>
<!DOCTYPE svg PUBLIC "-//W3C//DTD SVG 20010904//EN"
              "http://www.w3.org/TR/2001/REC-SVG-20010904/DTD/svg10.dtd">

<svg xmlns="http://www.w3.org/2000/svg" viewBox="0 0 952 567">
  <path id="Selection #2" fill="black" d="M 92.00,142.00
           C 90.44,150.71 90.90,160.13 91.00,169.00
             91.00,169.00 93.00,187.00 93.00,187.00
             93.00,187.00 93.68,250.00 93.68,250.00
             93.68,250.00 91.00,270.00 91.00,270.00
             90.87,281.72 93.19,283.05 93.63,291.00
             93.63,291.00 93.01,303.00 93.01,303.00
             93.01,303.00 96.00,326.00 96.00,326.00
             96.05,330.55 96.61,342.34 94.69,345.94
             92.63,349.77 88.71,350.62 86.14,346.77
             83.98,343.55 84.01,337.77 84.00,334.00
             84.00,334.00 84.00,327.00 84.00,327.00
             83.91,319.55 82.76,319.54 82.09,314.00
             82.09,314.00 82.09,296.00 82.09,296.00
             82.09,296.00 79.04,272.00 79.04,272.00
             79.04,272.00 82.00,241.00 82.00,241.00
             82.00,241.00 82.00,194.00 82.00,194.00
             82.00,194.00 79.00,164.00 79.00,164.00
             79.00,164.00 79.00,145.00 79.00,145.00
             79.08,138.48 79.91,130.71 83.18,125.02
             85.24,121.45 87.59,118.85 91.99,121.03
             101.86,125.92 109.29,146.62 114.32,156.00
             118.41,163.62 120.69,163.82 125.58,175.00
             128.65,182.05 136.56,196.05 143.99,198.68
             146.79,199.68 148.34,198.04 149.90,195.94
             153.10,191.61 152.94,188.71 159.09,182.00
             170.99,169.03 167.80,170.75 176.29,160.00
             176.29,160.00 193.19,139.00 193.19,139.00
             197.53,132.12 197.93,121.74 205.96,123.36
             209.01,123.97 210.22,126.27 211.06,129.00
             211.06,129.00 212.79,138.00 212.79,138.00
             214.29,143.24 215.37,143.09 217.00,151.00
             218.49,158.25 219.99,165.59 220.00,173.00
             220.00,173.00 220.00,196.00 220.00,196.00
             219.98,206.40 218.97,203.44 218.09,210.00
             218.09,210.00 218.09,228.00 218.09,228.00
             218.09,228.00 222.00,264.00 222.00,264.00
             222.00,264.00 222.00,277.00 222.00,277.00
             222.00,277.00 225.00,303.00 225.00,303.00
             225.04,306.49 225.21,311.72 223.43,314.77
             220.90,319.11 216.00,318.13 214.15,312.98
             213.24,310.46 213.10,306.70 212.72,304.00
             212.72,304.00 211.08,295.00 211.08,295.00
             211.08,295.00 211.08,267.00 211.08,267.00
             211.08,267.00 206.00,227.00 206.00,227.00
             206.00,227.00 206.00,212.00 206.00,212.00
             206.00,212.00 209.00,184.00 209.00,184.00
             209.11,174.52 207.92,166.28 206.25,157.00
             205.75,154.23 205.08,148.44 200.98,149.05
             197.70,149.54 191.40,158.25 189.20,161.00
             189.20,161.00 177.67,177.00 177.67,177.00
             170.19,186.05 166.59,186.84 161.33,199.00
             158.36,205.87 152.99,219.37 143.00,216.29
             136.46,214.26 133.07,207.22 129.41,202.00
             124.62,195.17 120.79,190.50 116.66,183.00
             116.66,183.00 111.49,172.00 111.49,172.00
             111.49,172.00 103.79,160.00 103.79,160.00
             100.30,153.48 99.01,145.65 92.00,142.00 Z
           M 482.41,145.04
           C 488.84,143.04 490.78,151.05 492.08,156.00
             492.08,156.00 493.51,165.00 493.51,165.00
             493.51,165.00 495.54,173.00 495.54,173.00
             495.54,173.00 499.42,200.00 499.42,200.00
             499.42,200.00 513.28,287.00 513.28,287.00
             513.28,287.00 515.67,309.00 515.67,309.00
             516.20,311.49 517.16,315.51 519.42,316.97
             522.80,319.17 530.26,315.84 534.00,314.89
             534.00,314.89 548.00,311.46 548.00,311.46
             548.00,311.46 562.00,309.68 562.00,309.68
             562.00,309.68 569.00,308.18 569.00,308.18
             581.30,306.74 579.98,315.13 575.85,318.16
             568.94,323.24 557.74,321.02 550.00,322.90
             550.00,322.90 539.00,326.51 539.00,326.51
             539.00,326.51 528.00,329.09 528.00,329.09
             522.33,330.95 515.98,333.85 510.11,330.55
             506.40,328.46 506.29,325.77 505.73,322.00
             505.73,322.00 503.00,299.00 503.00,299.00
             503.00,299.00 497.43,259.00 497.43,259.00
             497.43,259.00 491.00,218.00 491.00,218.00
             491.00,218.00 484.54,177.00 484.54,177.00
             484.54,177.00 481.61,165.00 481.61,165.00
             480.41,158.75 477.49,150.06 482.41,145.04 Z
           M 246.74,189.01
           C 250.60,187.72 252.81,189.58 254.73,193.02
             254.73,193.02 257.99,201.00 257.99,201.00
             257.99,201.00 268.42,220.00 268.42,220.00
             268.42,220.00 281.46,244.00 281.46,244.00
             281.46,244.00 291.30,258.00 291.30,258.00
             299.08,270.08 306.71,282.93 312.69,296.00
             314.66,300.30 316.05,305.01 318.56,309.00
             318.56,309.00 324.07,317.00 324.07,317.00
             325.22,318.92 327.24,324.10 329.23,324.80
             331.29,325.53 332.61,323.45 333.47,321.96
             333.47,321.96 339.70,308.00 339.70,308.00
             350.58,283.85 350.64,272.52 367.53,250.00
             369.83,246.93 376.71,237.25 379.09,235.31
             380.96,233.79 384.17,232.31 386.40,234.03
             391.21,237.72 383.12,247.02 380.89,250.00
             374.55,258.48 368.31,267.32 363.90,277.00
             363.90,277.00 355.42,300.00 355.42,300.00
             348.78,315.58 336.07,340.58 336.00,357.00
             335.95,369.53 337.59,366.96 338.66,375.00
             339.19,378.99 337.28,384.73 332.18,383.16
             329.84,382.43 328.30,379.61 326.72,378.90
             323.88,377.62 322.40,380.96 321.44,383.01
             318.01,390.33 317.64,393.64 312.56,401.00
             303.87,413.63 305.54,414.21 299.63,426.00
             299.63,426.00 288.54,444.00 288.54,444.00
             288.54,444.00 282.63,459.00 282.63,459.00
             280.52,463.90 278.56,479.02 276.27,481.55
             273.18,484.97 267.40,483.15 267.04,474.00
             266.41,457.55 278.82,439.33 286.93,426.00
             286.93,426.00 296.26,406.00 296.26,406.00
             296.26,406.00 304.69,393.00 304.69,393.00
             307.86,387.23 309.79,381.08 312.20,375.00
             315.73,366.12 321.56,359.02 320.91,349.00
             320.29,339.49 317.55,335.25 314.54,327.00
             313.46,324.02 313.16,322.02 311.60,319.00
             311.60,319.00 306.32,310.00 306.32,310.00
             306.32,310.00 294.57,285.00 294.57,285.00
             294.57,285.00 278.91,259.00 278.91,259.00
             278.91,259.00 271.06,248.00 271.06,248.00
             271.06,248.00 262.23,232.00 262.23,232.00
             262.23,232.00 252.60,214.00 252.60,214.00
             250.53,210.53 246.91,205.61 245.80,202.00
             244.57,197.99 244.24,192.47 246.74,189.01 Z
           M 785.04,195.76
           C 790.08,194.90 793.93,197.64 791.82,203.00
             791.82,203.00 784.46,214.00 784.46,214.00
             781.38,219.09 780.93,221.94 778.69,227.00
             777.53,229.62 775.58,233.09 775.67,236.00
             775.80,240.39 779.44,243.02 783.00,244.86
             787.61,247.25 791.25,247.19 796.00,248.49
             796.00,248.49 812.00,253.88 812.00,253.88
             814.87,254.64 819.13,256.30 821.98,255.36
             830.40,252.59 829.09,238.00 829.00,231.00
             828.94,227.15 828.91,224.36 825.77,221.64
             820.37,216.94 807.39,216.30 802.22,212.15
             798.65,209.28 797.02,203.38 801.23,201.61
             804.68,200.17 811.42,203.83 815.00,204.97
             829.47,209.59 840.91,210.90 841.00,229.00
             841.05,238.83 842.14,257.41 834.78,264.78
             827.92,271.63 819.77,268.44 812.00,266.02
             812.00,266.02 798.00,261.42 798.00,261.42
             791.63,259.05 791.35,259.68 786.00,258.24
             786.00,258.24 776.00,254.77 776.00,254.77
             772.56,253.72 769.22,253.50 766.65,250.61
             763.33,246.88 763.98,240.69 764.00,236.00
             764.05,224.95 769.94,216.11 775.68,207.00
             778.61,202.35 780.10,198.52 785.04,195.76 Z
           M 706.00,224.57
           C 714.28,223.36 715.76,228.92 711.43,235.00
             711.43,235.00 700.83,246.68 700.83,246.68
             700.83,246.68 694.33,252.18 694.33,252.18
             691.38,255.33 689.18,260.12 687.25,264.00
             685.22,268.06 680.56,275.56 685.31,279.39
             686.72,280.52 688.28,280.69 690.00,280.29
             694.00,279.38 698.07,274.81 701.00,272.09
             706.54,266.96 717.63,258.61 720.69,252.00
             723.08,246.83 717.80,233.19 727.01,232.54
             731.25,232.24 733.97,236.61 735.29,240.00
             735.29,240.00 740.72,265.00 740.72,265.00
             740.72,265.00 750.36,297.00 750.36,297.00
             750.36,297.00 759.05,320.00 759.05,320.00
             759.05,320.00 767.23,341.00 767.23,341.00
             767.23,341.00 769.89,355.00 769.89,355.00
             771.05,360.14 772.61,365.72 772.91,371.00
             773.70,385.05 764.31,386.13 755.00,392.09
             748.14,396.48 738.68,403.32 731.00,405.90
             726.53,407.40 714.00,408.35 711.18,403.73
             707.79,398.17 713.84,396.17 718.00,395.44
             731.98,392.97 741.09,389.63 752.00,380.27
             755.37,377.38 759.23,374.52 760.42,370.00
             761.54,365.69 759.39,361.17 758.51,357.00
             756.15,345.73 758.01,348.15 753.01,336.00
             753.01,336.00 744.58,313.00 744.58,313.00
             744.58,313.00 739.03,299.00 739.03,299.00
             739.03,299.00 730.22,270.01 730.22,270.01
             726.28,261.27 721.23,268.51 717.09,273.00
             717.09,273.00 710.68,280.61 710.68,280.61
             708.73,282.44 706.21,283.69 704.00,285.22
             704.00,285.22 694.00,292.56 694.00,292.56
             686.62,296.40 676.17,296.90 672.48,288.00
             669.73,281.35 670.80,269.40 674.00,263.00
             674.00,263.00 679.08,255.00 679.08,255.00
             681.47,251.06 682.13,248.88 685.33,245.00
             685.33,245.00 692.91,237.00 692.91,237.00
             697.83,231.65 698.83,227.37 706.00,224.57 Z
           M 611.00,226.53
           C 615.56,225.80 624.51,226.75 620.81,233.82
             619.16,236.95 614.80,238.36 611.11,242.10
             606.33,246.95 603.70,256.26 604.09,263.00
             604.37,267.82 606.65,280.91 612.04,282.19
             614.37,282.75 617.91,281.05 620.00,280.06
             625.54,277.43 635.81,273.41 635.26,266.00
             634.84,260.33 628.35,254.91 627.63,249.00
             627.09,244.52 630.48,241.13 634.91,242.87
             638.26,244.19 641.38,248.98 643.13,252.00
             648.07,260.54 651.02,271.95 645.00,280.90
             642.38,284.79 638.08,286.04 634.00,287.86
             625.95,291.45 621.29,295.49 612.00,294.96
             605.59,294.59 599.24,288.69 596.65,283.00
             596.65,283.00 594.37,275.00 594.37,275.00
             594.37,275.00 591.21,261.00 591.21,261.00
             591.00,257.68 592.07,254.21 592.87,251.00
             595.69,239.75 598.84,230.39 611.00,226.53 Z" />
</svg>
